<svg width="614" height="614" viewBox="0 0 614 614" fill="none" xmlns="http://www.w3.org/2000/svg">
<rect width="614" height="614" fill="#1E1E1C"/>
<path d="M139.452 373.83C137.932 371.363 137.865 368.267 139.276 365.736L256.282 155.938C257.695 153.405 260.368 151.835 263.269 151.835L355.649 151.839C361.704 151.839 365.564 158.306 362.69 163.635L204.659 456.765C201.736 462.187 194.038 462.409 190.806 457.165L139.452 373.83Z" fill="#D3EB4F"/>
<path d="M106.702 252.056C103.545 256.897 96.4548 256.897 93.2985 252.056L36.1843 164.454C32.7149 159.133 36.5333 152.085 42.8858 152.085L157.114 152.085C163.467 152.085 167.285 159.133 163.816 164.454L106.702 252.056Z" fill="#D3EB4F"/>
<path d="M597 306.335V273.585C597 206.068 542.267 151.335 474.75 151.335H453.9C451.042 151.335 448.401 152.86 446.972 155.335L391.096 252.115C389.498 254.883 391.496 258.343 394.692 258.343H448.966C476.323 258.343 498.5 280.52 498.5 307.878C498.5 335.235 476.323 357.412 448.966 357.412H336.395C334.106 357.412 331.987 358.618 330.819 360.586L278.175 449.251C275.009 454.583 278.852 461.335 285.054 461.335H434H442C527.604 461.335 597 391.939 597 306.335Z" fill="#D3EB4F"/>
</svg>
