<svg width="3022" height="403" viewBox="0 0 3022 403" fill="none" xmlns="http://www.w3.org/2000/svg">
<path d="M139.452 269.83C137.932 267.363 137.865 264.267 139.276 261.736L256.282 51.9383C257.695 49.4049 260.368 47.8348 263.269 47.8349L355.649 47.839C361.704 47.8393 365.564 54.3056 362.69 59.6354L204.659 352.765C201.736 358.187 194.038 358.409 190.806 353.165L139.452 269.83Z" fill="#D3EB4F"/>
<path d="M106.702 148.056C103.545 152.897 96.4548 152.897 93.2985 148.056L36.1843 60.4542C32.7149 55.1327 36.5333 48.085 42.8858 48.085L157.114 48.0849C163.467 48.0849 167.285 55.1327 163.816 60.4541L106.702 148.056Z" fill="#D3EB4F"/>
<path d="M597 202.335V169.585C597 102.068 542.267 47.335 474.75 47.335H453.9C451.042 47.335 448.401 48.8598 446.972 51.335L391.096 148.115C389.498 150.883 391.496 154.343 394.692 154.343H448.966C476.323 154.343 498.5 176.52 498.5 203.878C498.5 231.235 476.323 253.412 448.966 253.412H336.395C334.106 253.412 331.987 254.618 330.819 256.586L278.175 345.251C275.009 350.583 278.852 357.335 285.054 357.335H434H442C527.604 357.335 597 287.939 597 202.335Z" fill="#D3EB4F"/>
<path d="M913.16 87.4397L837 314H745.16L669 87.4397H744.52L791.24 243.28L837.64 87.4397H913.16Z" fill="#1E1E1C"/>
<path d="M919.462 223.76C919.462 204.773 922.663 188.346 929.062 174.48C935.676 160.4 944.636 149.733 955.943 142.48C967.249 135.013 979.943 131.28 994.023 131.28C1005.76 131.28 1015.89 133.733 1024.42 138.64C1032.96 143.333 1039.46 149.84 1043.94 158.16V133.52H1114.66V314H1043.94V289.36C1039.46 297.68 1032.96 304.293 1024.42 309.2C1015.89 313.893 1005.76 316.24 994.023 316.24C979.943 316.24 967.249 312.613 955.943 305.36C944.636 297.893 935.676 287.226 929.062 273.36C922.663 259.28 919.462 242.746 919.462 223.76ZM1043.94 223.76C1043.94 214.16 1041.49 206.693 1036.58 201.36C1031.68 196.026 1025.38 193.36 1017.7 193.36C1010.02 193.36 1003.73 196.026 998.823 201.36C993.916 206.693 991.462 214.16 991.462 223.76C991.462 233.36 993.916 240.826 998.823 246.16C1003.73 251.493 1010.02 254.16 1017.7 254.16C1025.38 254.16 1031.68 251.493 1036.58 246.16C1041.49 240.826 1043.94 233.36 1043.94 223.76Z" fill="#1E1E1C"/>
<path d="M1272.96 132.24C1293.66 132.24 1309.76 139.173 1321.28 153.04C1333.02 166.906 1338.88 185.68 1338.88 209.36V314H1268.16V218.32C1268.16 209.786 1265.82 203.066 1261.12 198.16C1256.64 193.04 1250.56 190.48 1242.88 190.48C1234.99 190.48 1228.8 193.04 1224.32 198.16C1219.84 203.066 1217.6 209.786 1217.6 218.32V314H1146.56V133.52H1217.6V161.04C1223.15 152.506 1230.51 145.573 1239.68 140.24C1249.07 134.906 1260.16 132.24 1272.96 132.24Z" fill="#1E1E1C"/>
<path d="M1482.01 253.52V314H1455.13C1405.63 314 1380.89 289.36 1380.89 240.08V192.72H1358.49V133.52H1380.89V89.9997H1451.93V133.52H1481.37V192.72H1451.93V241.36C1451.93 245.626 1452.89 248.72 1454.81 250.64C1456.94 252.56 1460.35 253.52 1465.05 253.52H1482.01Z" fill="#1E1E1C"/>
<path d="M1580.1 166.8C1587.36 156.346 1596.21 148.026 1606.66 141.84C1617.12 135.44 1628 132.24 1639.3 132.24V208.08H1619.14C1605.7 208.08 1595.78 210.426 1589.38 215.12C1583.2 219.813 1580.1 228.133 1580.1 240.08V314H1509.06V133.52H1580.1V166.8Z" fill="#1E1E1C"/>
<path d="M1744.2 316.24C1726.06 316.24 1709.74 312.506 1695.24 305.04C1680.73 297.573 1669.32 286.906 1661 273.04C1652.89 258.96 1648.84 242.533 1648.84 223.76C1648.84 204.986 1652.89 188.666 1661 174.8C1669.32 160.72 1680.73 149.946 1695.24 142.48C1709.74 135.013 1726.06 131.28 1744.2 131.28C1762.33 131.28 1778.65 135.013 1793.16 142.48C1807.66 149.946 1818.97 160.72 1827.08 174.8C1835.4 188.666 1839.56 204.986 1839.56 223.76C1839.56 242.533 1835.4 258.96 1827.08 273.04C1818.97 286.906 1807.66 297.573 1793.16 305.04C1778.65 312.506 1762.33 316.24 1744.2 316.24ZM1744.2 254.8C1750.81 254.8 1756.36 252.24 1760.84 247.12C1765.32 241.786 1767.56 234 1767.56 223.76C1767.56 213.52 1765.32 205.84 1760.84 200.72C1756.36 195.386 1750.81 192.72 1744.2 192.72C1737.58 192.72 1732.04 195.386 1727.56 200.72C1723.08 205.84 1720.84 213.52 1720.84 223.76C1720.84 234 1722.97 241.786 1727.24 247.12C1731.72 252.24 1737.37 254.8 1744.2 254.8Z" fill="#1E1E1C"/>
<path d="M2010.65 87.4397C2034.33 87.4397 2055.02 92.2397 2072.73 101.84C2090.65 111.44 2104.41 124.773 2114.01 141.84C2123.61 158.906 2128.41 178.32 2128.41 200.08C2128.41 221.626 2123.61 241.04 2114.01 258.32C2104.41 275.6 2090.65 289.253 2072.73 299.28C2055.02 309.093 2034.33 314 2010.65 314H1916.25V87.4397H2010.65ZM2004.25 250.64C2020.25 250.64 2032.94 246.266 2042.33 237.52C2051.72 228.773 2056.41 216.293 2056.41 200.08C2056.41 183.866 2051.72 171.386 2042.33 162.64C2032.94 153.893 2020.25 149.52 2004.25 149.52H1987.29V250.64H2004.25Z" fill="#1E1E1C"/>
<path d="M2189.9 119.12C2177.53 119.12 2167.61 115.813 2160.14 109.2C2152.68 102.586 2148.94 94.2664 2148.94 84.2397C2148.94 73.9997 2152.68 65.5731 2160.14 58.9597C2167.61 52.1331 2177.53 48.7197 2189.9 48.7197C2202.06 48.7197 2211.88 52.1331 2219.34 58.9597C2226.81 65.5731 2230.54 73.9997 2230.54 84.2397C2230.54 94.2664 2226.81 102.586 2219.34 109.2C2211.88 115.813 2202.06 119.12 2189.9 119.12ZM2225.1 133.52V314H2154.06V133.52H2225.1Z" fill="#1E1E1C"/>
<path d="M2322.15 131.28C2333.88 131.28 2344.01 133.733 2352.55 138.64C2361.08 143.333 2367.59 149.84 2372.07 158.16V133.52H2442.79V310.8C2442.79 327.653 2439.69 343.013 2433.51 356.88C2427.32 370.746 2417.29 381.84 2403.43 390.16C2389.77 398.48 2372.17 402.64 2350.63 402.64C2321.61 402.64 2298.57 395.813 2281.51 382.16C2264.65 368.72 2255.05 350.373 2252.71 327.12H2322.47C2324.39 336.506 2332.07 341.2 2345.51 341.2C2353.83 341.2 2360.33 339.066 2365.03 334.8C2369.72 330.533 2372.07 322.533 2372.07 310.8V289.36C2367.59 297.68 2361.08 304.293 2352.55 309.2C2344.01 313.893 2333.88 316.24 2322.15 316.24C2308.07 316.24 2295.37 312.613 2284.07 305.36C2272.76 297.893 2263.8 287.226 2257.19 273.36C2250.79 259.28 2247.59 242.746 2247.59 223.76C2247.59 204.773 2250.79 188.346 2257.19 174.48C2263.8 160.4 2272.76 149.733 2284.07 142.48C2295.37 135.013 2308.07 131.28 2322.15 131.28ZM2372.07 223.76C2372.07 214.16 2369.61 206.693 2364.71 201.36C2359.8 196.026 2353.51 193.36 2345.83 193.36C2338.15 193.36 2331.85 196.026 2326.95 201.36C2322.04 206.693 2319.59 214.16 2319.59 223.76C2319.59 233.36 2322.04 240.826 2326.95 246.16C2331.85 251.493 2338.15 254.16 2345.83 254.16C2353.51 254.16 2359.8 251.493 2364.71 246.16C2369.61 240.826 2372.07 233.36 2372.07 223.76Z" fill="#1E1E1C"/>
<path d="M2510.53 119.12C2498.15 119.12 2488.23 115.813 2480.77 109.2C2473.3 102.586 2469.57 94.2664 2469.57 84.2397C2469.57 73.9997 2473.3 65.5731 2480.77 58.9597C2488.23 52.1331 2498.15 48.7197 2510.53 48.7197C2522.69 48.7197 2532.5 52.1331 2539.97 58.9597C2547.43 65.5731 2551.17 73.9997 2551.17 84.2397C2551.17 94.2664 2547.43 102.586 2539.97 109.2C2532.5 115.813 2522.69 119.12 2510.53 119.12ZM2545.73 133.52V314H2474.69V133.52H2545.73Z" fill="#1E1E1C"/>
<path d="M2690.13 253.52V314H2663.25C2613.76 314 2589.01 289.36 2589.01 240.08V192.72H2566.61V133.52H2589.01V89.9997H2660.05V133.52H2689.49V192.72H2660.05V241.36C2660.05 245.626 2661.01 248.72 2662.93 250.64C2665.07 252.56 2668.48 253.52 2673.17 253.52H2690.13Z" fill="#1E1E1C"/>
<path d="M2707.59 223.76C2707.59 204.773 2710.79 188.346 2717.19 174.48C2723.8 160.4 2732.76 149.733 2744.07 142.48C2755.37 135.013 2768.07 131.28 2782.15 131.28C2793.88 131.28 2804.01 133.733 2812.55 138.64C2821.08 143.333 2827.59 149.84 2832.07 158.16V133.52H2902.79V314H2832.07V289.36C2827.59 297.68 2821.08 304.293 2812.55 309.2C2804.01 313.893 2793.88 316.24 2782.15 316.24C2768.07 316.24 2755.37 312.613 2744.07 305.36C2732.76 297.893 2723.8 287.226 2717.19 273.36C2710.79 259.28 2707.59 242.746 2707.59 223.76ZM2832.07 223.76C2832.07 214.16 2829.61 206.693 2824.71 201.36C2819.8 196.026 2813.51 193.36 2805.83 193.36C2798.15 193.36 2791.85 196.026 2786.95 201.36C2782.04 206.693 2779.59 214.16 2779.59 223.76C2779.59 233.36 2782.04 240.826 2786.95 246.16C2791.85 251.493 2798.15 254.16 2805.83 254.16C2813.51 254.16 2819.8 251.493 2824.71 246.16C2829.61 240.826 2832.07 233.36 2832.07 223.76Z" fill="#1E1E1C"/>
<path d="M3005.73 77.1997V314H2934.69V77.1997H3005.73Z" fill="#1E1E1C"/>
</svg>
